HIERARCHY
ROOT hip
{
	OFFSET 0.000000 0.000000 0.000000 
	CHANNELS 6 Xposition Yposition Zposition Xrotation Zrotation Yrotation
	JOINT abdomen
	{
		OFFSET 0.000000 3.402643 0.000000 
		CHANNELS 3 Xrotation Zrotation Yrotation
		JOINT chest
		{
			OFFSET 0.000000 8.438565 -0.680529 
			CHANNELS 3 Xrotation Zrotation Yrotation
			JOINT neck
			{
				OFFSET 0.000000 10.207942 -0.272212 
				CHANNELS 3 Xrotation Zrotation Yrotation
				JOINT head
				{
					OFFSET 0.000000 3.130431 0.000000 
					CHANNELS 3 Xrotation Zrotation Yrotation
					End Site
					{
						OFFSET 0.000000 3.130435 0.000000 
					}
				}
			}
			JOINT lCollar
			{
				OFFSET 3.470700 6.669187 -0.816635 
				CHANNELS 3 Yrotation Zrotation Xrotation
				JOINT lShldr
				{
					OFFSET 3.198488 0.000000 0.000000 
					CHANNELS 3 Zrotation Yrotation Xrotation
					JOINT lForeArm
					{
						OFFSET 10.139888 0.000000 0.000000 
						CHANNELS 3 Yrotation Zrotation Xrotation
						JOINT lHand
						{
							OFFSET 8.370511 0.000000 0.000000 
							CHANNELS 3 Zrotation Yrotation Xrotation
							End Site
							{
								OFFSET 4.083176 0.000000 0.000000 
							}
						}
					}
				}
			}
			JOINT rCollar
			{
				OFFSET -3.470700 6.669187 -0.816635 
				CHANNELS 3 Yrotation Zrotation Xrotation
				JOINT rShldr
				{
					OFFSET -3.198488 0.000000 0.000000 
					CHANNELS 3 Zrotation Yrotation Xrotation
					JOINT rForeArm
					{
						OFFSET -10.139888 0.000000 0.000000 
						CHANNELS 3 Yrotation Zrotation Xrotation
						JOINT rHand
						{
							OFFSET -8.370511 0.000000 0.000000 
							CHANNELS 3 Zrotation Yrotation Xrotation
							End Site
							{
								OFFSET -4.083176 0.000000 0.000000 
							}
						}
					}
				}
			}
		}
	}
	JOINT lThigh
	{
		OFFSET 5.308129 -1.633274 1.361059 
		CHANNELS 3 Xrotation Zrotation Yrotation
		JOINT lShin
		{
			OFFSET -2.041588 -20.007561 0.000000 
			CHANNELS 3 Xrotation Zrotation Yrotation
			JOINT lFoot
			{
				OFFSET 0.000000 -19.190928 -1.224953 
				CHANNELS 3 Xrotation Yrotation Zrotation
				End Site
				{
					OFFSET 0.000000 -2.449906 4.627600 
				}
			}
		}
	}
	JOINT rThigh
	{
		OFFSET -5.308129 -1.633274 1.361059 
		CHANNELS 3 Xrotation Zrotation Yrotation
		JOINT rShin
		{
			OFFSET 2.041588 -20.007561 0.000000 
			CHANNELS 3 Xrotation Zrotation Yrotation
			JOINT rFoot
			{
				OFFSET 0.000000 -19.190928 -1.224953 
				CHANNELS 3 Xrotation Yrotation Zrotation
				End Site
				{
					OFFSET 0.000000 -2.449906 4.627600 
				}
			}
		}
	}
}
MOTION
Frames: 15
Frame Time: 0.016667
-0.627025 49.488319 1.236543 -5.030521 0.839587 -1.416150 8.255935 -1.815896 -1.358287 6.254633 -10.673625 2.503343 27.545946 -28.880745 11.941305 0.564919 -15.276864 15.298818 -5.583745 -22.063084 2.964758 -49.148270 28.030842 13.064947 -99.324326 5.417758 12.496924 22.189281 -33.128414 -5.852679 12.883572 -0.780990 6.401584 60.886169 -26.683130 82.435135 17.781404 -13.008536 7.954995 -5.595247 9.714942 -88.244156 -3.827560 -1.014937 -18.602377 32.798325 -0.800605 -1.535958 1.269416 -26.909365 -2.137497 -12.806256 -21.781345 15.215975 24.177130 -0.716956 1.141735 26.544922 -2.791679 3.056116 
-1.795436 49.638985 1.637238 -5.064850 -0.779306 4.043259 8.255935 -1.815896 -1.358287 6.950624 -9.956307 1.764436 28.541767 -25.780634 10.638500 0.770451 -12.866261 14.442225 -6.148261 -21.683838 3.638926 -48.450584 28.083958 13.651858 -100.028534 5.363873 12.342342 22.800568 -33.394440 -6.061391 12.076601 -0.217759 6.858761 59.886429 -27.358557 82.325981 18.315807 -13.016583 8.031587 -5.275511 9.766047 -87.918861 -3.647556 1.708753 -18.560797 33.852097 -0.549070 -1.379627 0.470013 -23.710047 -2.253903 -7.860867 -20.849022 15.171652 19.628601 -0.462289 0.681289 29.149055 -3.211431 3.236440 
-2.795848 49.679466 2.021726 -4.420869 -1.837710 9.858418 8.255935 -1.815896 -1.358287 7.126171 -9.783545 1.049970 29.015636 -23.074873 9.461477 0.993768 -10.639338 13.567233 -6.844251 -21.597660 3.704275 -47.737877 28.159580 13.897686 -100.737617 5.249103 12.535051 22.870375 -33.525909 -6.522502 11.367479 -0.124189 6.885476 59.077045 -28.175730 81.946579 18.676779 -13.026083 8.084888 -4.578629 9.838802 -87.915009 -4.350889 3.981991 -18.312222 34.763584 -0.568680 -1.058451 -0.727741 -20.993626 -2.180875 -3.876071 -20.223824 12.938094 16.634604 -0.454722 0.763495 29.261005 -4.252437 3.440771 
-3.764875 49.657150 2.415824 -4.156997 -2.983320 15.499705 8.255935 -1.815896 -1.358287 7.126325 -9.609182 0.366039 29.445686 -20.116753 8.091923 1.420142 -8.406975 12.656940 -7.575087 -21.491688 3.538957 -47.207214 28.404711 13.971104 -101.276909 5.224456 12.380865 22.734930 -33.475677 -7.053823 10.667822 -0.058817 6.757451 58.238552 -28.832014 81.656441 18.676779 -13.026083 8.084888 -4.090804 9.746084 -87.371033 -5.303668 5.668331 -17.890335 35.610641 -0.270144 -1.396989 -2.311614 -17.648287 -2.430548 -0.339959 -18.691570 9.994262 14.523226 -0.441634 0.516394 28.110813 -4.906780 3.201164 
-4.701878 49.577690 2.809826 -3.469300 -3.871590 21.153934 8.255935 -1.815896 -1.358287 6.945322 -9.609352 -0.130062 29.342766 -17.795662 6.975049 1.695251 -6.189198 11.650456 -8.171079 -21.513718 3.265327 -46.814354 28.481634 13.667849 -101.451599 5.214380 12.388918 22.363939 -33.312675 -7.207469 10.182437 -0.162916 6.508510 57.386551 -29.474342 81.358444 18.498613 -13.012643 8.053587 -3.715029 9.750558 -85.632698 -6.857673 7.153885 -18.212433 36.329956 -0.543507 -1.522622 -3.845812 -14.290969 -2.407262 2.451221 -17.393110 6.270037 12.752403 -0.617481 0.594909 26.341970 -6.264820 3.463999 
-5.604602 49.454212 3.197129 -2.959751 -4.727258 26.797554 8.255935 -1.815896 -1.358287 6.946711 -9.608744 -0.664678 29.407909 -15.427031 5.621505 1.808994 -4.156288 10.623429 -8.731265 -21.567396 3.166041 -46.772400 28.529684 13.138229 -101.634758 5.176387 12.564340 21.806936 -33.197918 -7.201926 9.659422 -0.245534 6.441984 56.327557 -29.985445 81.087395 17.967840 -13.011730 7.986423 -3.363400 9.765496 -83.735138 -8.610071 8.221122 -18.543787 37.050045 -0.543401 -1.352389 -5.410680 -10.786922 -2.199008 5.243484 -15.816010 2.464025 11.550798 -0.597742 0.576501 23.777922 -7.342940 3.554988 
-6.471623 49.296658 3.567526 -2.399026 -5.402508 31.915588 8.255935 -1.815896 -1.358287 6.946438 -9.607347 -1.189663 29.113241 -13.208313 4.171289 1.607498 -2.457229 9.344442 -9.267629 -21.439426 3.106361 -47.230183 28.365974 12.275245 -101.276909 5.224456 12.380865 21.188110 -32.943153 -6.729712 9.154333 -0.144317 6.335284 54.987560 -29.980473 81.117973 17.237192 -13.000281 7.879857 -3.478953 9.700024 -80.415878 -10.420599 8.863416 -18.596306 37.754398 -0.295465 -1.577929 -6.774573 -6.843692 -2.666169 7.094872 -13.957039 -1.469465 10.699013 -0.586392 0.354004 20.669413 -8.681700 3.707556 
-7.299214 49.120598 3.921947 -2.050919 -6.212829 37.208183 8.255935 -1.815896 -1.358287 7.120046 -9.430922 -1.377476 28.831659 -11.488359 3.018294 1.412356 -0.928358 8.008812 -9.409115 -21.491224 3.251708 -47.867779 28.011173 11.308007 -100.569862 5.287381 12.533059 20.670137 -32.548309 -5.877600 8.950942 -0.144158 6.483586 53.416489 -29.668903 81.347656 16.170759 -12.983563 7.730304 -3.396286 9.670463 -77.117508 -12.485805 9.227082 -19.144133 38.246807 -0.276165 -1.477204 -8.276852 -2.700353 -2.392127 8.998270 -11.879294 -5.715939 9.643340 -0.421038 0.300678 17.857243 -9.561773 3.664380 
-8.084099 48.941986 4.255684 -1.998630 -6.762590 41.622009 8.255935 -1.815896 -1.358287 7.472106 -9.255077 -1.406358 28.382418 -9.847081 2.090301 0.705151 0.426668 6.797122 -9.358109 -21.346529 3.443430 -48.872829 27.581461 10.534949 -99.681267 5.378122 12.502634 20.494570 -32.143200 -4.852907 8.920171 0.060299 6.618790 51.554596 -28.851242 81.442421 14.907223 -13.116796 7.580794 -3.513146 9.524255 -73.089737 -14.231115 9.578131 -19.674212 38.951485 -0.416620 -1.215767 -9.457598 0.883470 -2.112673 10.390472 -9.775553 -9.558238 8.410491 -0.450793 0.266198 14.806901 -10.901230 3.690915 
-8.823191 48.769924 4.575078 -1.793945 -7.361948 46.212349 8.255935 -1.815896 -1.358287 7.826533 -9.070088 -1.266697 28.146082 -8.611118 1.292655 0.004062 1.613150 5.676246 -9.045546 -21.231161 4.070311 -49.860844 26.986149 9.691617 -98.258629 5.548127 12.445655 20.444141 -31.533089 -3.817148 9.011246 0.350425 7.137555 49.574516 -27.676966 81.288330 13.629423 -13.087839 7.221684 -3.775335 9.401788 -69.080154 -16.106668 9.617741 -19.881334 39.662685 -0.572799 -1.292236 -10.406929 4.885465 -2.131374 11.623219 -7.544869 -12.581907 7.361628 -0.433029 0.084690 12.666687 -12.271476 3.865597 
-9.512112 48.619061 4.884183 -2.041476 -7.662859 50.259884 8.255935 -1.815896 -1.358287 8.352757 -8.885469 -0.969679 27.752632 -7.431109 0.689219 -0.872585 2.473042 4.437884 -8.560001 -21.093649 4.730361 -50.673077 26.386570 9.027914 -96.795158 5.681769 12.223886 20.728022 -30.717201 -2.840474 9.263527 0.656196 7.662179 47.436565 -25.967876 80.609596 12.187612 -13.063134 7.020424 -3.991264 8.972634 -64.650406 -17.636847 9.783606 -19.905523 40.024059 -0.579031 -1.302079 -11.040621 7.645335 -2.108236 12.692084 -5.634253 -14.713245 6.640853 -0.441236 0.225528 10.087867 -13.915772 3.744283 
-10.151632 48.488781 5.185462 -2.263318 -7.790412 53.781372 8.255935 -1.815896 -1.358287 9.053729 -8.691049 -0.524916 27.386303 -6.494043 0.313808 -1.746075 3.510092 3.219412 -7.875801 -20.933720 5.412079 -51.498402 25.770510 8.790374 -94.976791 5.879189 12.151608 21.394638 -30.021389 -1.976897 9.693969 0.999611 8.220085 45.334858 -24.266487 79.826057 10.756768 -13.185956 6.864533 -4.211452 8.764786 -60.063187 -18.915409 9.617804 -19.901016 40.189209 -0.581138 -1.330212 -11.071186 10.098108 -2.049643 13.355444 -3.876750 -15.798421 5.957149 -0.265903 0.198290 8.267105 -15.445361 3.983998 
-10.739759 48.385056 5.484287 -2.606081 -7.705146 57.118816 8.255935 -1.815896 -1.358287 9.590389 -8.505838 0.127001 27.219078 -5.449152 0.283778 -2.432247 4.381272 2.291903 -6.987412 -20.761805 6.302533 -51.840820 25.538908 8.737470 -92.965691 6.109959 12.226378 21.879028 -29.138140 -1.430888 10.246522 1.422952 8.945472 42.961403 -22.002283 77.372406 9.499632 -13.153995 6.686016 -5.239694 8.342510 -55.289440 -19.914307 9.618361 -19.896526 40.374657 -0.579017 -1.338448 -11.364293 11.673282 -2.224493 14.092965 -2.158490 -16.162945 5.435114 -0.062609 0.205130 6.604402 -17.428940 3.907966 
-11.280260 48.303120 5.776361 -2.935504 -7.623009 60.278858 8.255935 -1.815896 -1.358287 10.299264 -8.485939 0.552416 27.429798 -4.638665 -0.098126 -3.129573 5.086179 1.490650 -6.283655 -20.756308 7.125402 -51.988297 25.148483 8.858828 -90.829475 6.347929 12.133249 22.396250 -28.224314 -1.070375 10.637543 1.650052 9.691977 40.609348 -19.764187 74.718346 8.415838 -13.115729 6.491466 -6.091267 8.148160 -50.345219 -20.915295 9.628538 -20.254906 40.374912 -0.588863 -1.332165 -11.214414 12.397896 -2.082394 14.736752 -0.773070 -16.042372 5.084257 -0.081048 0.171937 5.274806 -18.860380 3.595084 
-11.774920 48.241234 6.060532 -3.236405 -7.368877 63.257877 8.255935 -1.815896 -1.358287 10.820858 -8.298944 1.212554 27.471346 -3.818348 0.136415 -3.468498 5.956542 0.736575 -5.430884 -20.514910 7.837569 -51.830612 25.140203 9.230505 -88.545647 6.585359 11.837575 22.572701 -27.323349 -0.885120 11.228067 2.076444 10.246951 38.211449 -17.170179 70.195221 7.518602 -13.081212 6.371720 -7.900302 7.744035 -46.440891 -21.743404 9.618896 -20.787161 40.198368 -0.569418 -1.346029 -10.780376 12.598745 -2.040892 15.343510 0.467176 -15.562039 4.908864 -0.062357 0.165841 4.113464 -20.227505 3.719272 
